<svg width="1200" height="900" viewBox="0 0 1200 900" fill="none" xmlns="http://www.w3.org/2000/svg">
  <rect width="1200" height="900" rx="40" fill="#0B0F14"/>
  <rect x="30" y="30" width="1140" height="840" rx="32" fill="url(#bg)" stroke="rgba(255,255,255,0.1)"/>
  <circle cx="110" cy="95" r="10" fill="#D6E5FF" opacity="0.8"/>
  <circle cx="145" cy="95" r="10" fill="#D6E5FF" opacity="0.35"/>
  <circle cx="180" cy="95" r="10" fill="#D6E5FF" opacity="0.18"/>
  <text x="90" y="170" fill="#F6FAFF" font-size="64" font-family="Arial, sans-serif" font-weight="700">Cascade EV</text>
  <text x="92" y="220" fill="#94A7C6" font-size="26" font-family="Arial, sans-serif">Tesla-inspired rentals, sales, and service for Oregon.</text>
  <rect x="90" y="280" width="500" height="250" rx="28" fill="#131A24" stroke="#243041"/>
  <text x="130" y="340" fill="#8FB6FF" font-size="22" font-family="Arial, sans-serif">LIVE RENTALS</text>
  <text x="130" y="395" fill="#F6FAFF" font-size="42" font-family="Arial, sans-serif" font-weight="700">Model X + Model Y</text>
  <text x="130" y="445" fill="#AAB8CB" font-size="22" font-family="Arial, sans-serif">Portland • Hood River • Mount Hood</text>
  <rect x="130" y="475" width="190" height="38" rx="19" fill="#DCE9FF"/>
  <text x="164" y="500" fill="#0A1220" font-size="18" font-family="Arial, sans-serif" font-weight="700">Book on Turo</text>
  <rect x="640" y="280" width="470" height="470" rx="34" fill="#10161F" stroke="#243041"/>
  <path d="M710 620C765 570 800 548 850 548C900 548 940 575 1000 640L1040 640L990 590C935 535 900 500 850 500C800 500 760 530 705 585L660 630L710 620Z" fill="#EAF2FF" opacity="0.9"/>
  <path d="M692 660H1028C997 710 942 742 860 742C775 742 720 710 692 660Z" fill="#A7C6FF" opacity="0.5"/>
  <path d="M720 650C772 610 806 590 854 590C902 590 940 612 995 650" stroke="#FFFFFF" stroke-width="8" stroke-linecap="round"/>
  <path d="M120 710C235 600 320 520 440 450C560 380 640 330 710 245C778 165 828 115 900 95C975 76 1040 94 1110 135" stroke="#8FB6FF" stroke-width="4" stroke-dasharray="8 12" opacity="0.6"/>
  <text x="865" y="805" fill="#94A7C6" font-size="22" font-family="Arial, sans-serif">Tesla-style UI concept</text>
  <defs>
    <linearGradient id="bg" x1="0" y1="0" x2="1200" y2="900" gradientUnits="userSpaceOnUse">
      <stop stop-color="#0E141D"/>
      <stop offset="1" stop-color="#0A0E14"/>
    </linearGradient>
  </defs>
</svg>
